<svg width="201" height="324" viewBox="0 0 201 324" fill="none" xmlns="http://www.w3.org/2000/svg">
<path fill-rule="evenodd" clip-rule="evenodd" d="M128.204 87.4893C127.038 89.2248 126.127 90.822 124.986 92.2258C123.679 93.8314 122.318 95.462 120.717 96.7457C117.198 99.5609 113.201 100.131 109.008 98.4004C103.674 96.1999 99.8253 92.4439 97.6934 86.9887C97.2995 85.9794 96.9396 84.9606 96.4439 83.6081C95.4816 84.6057 94.7304 85.3561 94.0154 86.1249C91.5535 88.7564 88.7724 90.9204 85.3578 92.1281C84.2195 92.5283 83.0161 92.8 81.8214 93.001C77.9208 93.6482 75.5445 91.2985 74.4137 88.8704C74.0088 87.9953 73.7114 87.0701 73.393 86.2377C72.4502 85.8937 72.2339 86.6395 71.8601 87.0391C69.9326 89.0907 68.1403 91.2796 66.0914 93.1928C63.9257 95.22 61.3554 96.6597 58.393 97.2093C57.6728 97.3399 56.9456 97.4711 56.2182 97.504C51.8674 97.7005 49.399 95.9891 47.5405 91.3206C47.1562 92.0508 46.764 92.5781 46.5918 93.1662C44.8172 99.0937 44.0668 105.149 44.0928 111.364C44.1439 123.309 48.0614 134.049 53.7685 144.263C55.2014 146.83 56.7297 149.369 58.4348 151.761C64.9265 160.83 73.7439 166.834 83.9374 170.849C86.8507 171.994 89.961 172.795 93.0606 173.26C97.0254 173.864 101.062 174.21 105.068 174.249C117.38 174.36 128.963 171.473 139.738 165.333C145.629 161.977 151.027 157.963 155.618 152.998C162.545 145.496 168.445 137.248 171.925 127.468C172.293 126.431 172.576 125.364 172.852 124.298C172.895 124.12 172.696 123.875 172.51 123.425C171.879 123.542 171.175 123.602 170.508 123.805C168.435 124.436 166.587 123.893 165.055 122.526C163.694 121.315 162.413 119.965 161.345 118.486C158.606 114.697 156.379 110.603 154.459 106.325C153.978 105.259 153.852 103.928 152.493 103.124C151.903 103.897 151.413 104.79 150.694 105.411C149.687 106.272 148.57 107.063 147.39 107.642C145.344 108.65 143.348 108.265 141.533 106.933C139.733 105.607 138.348 103.879 137.187 101.986C134.677 97.9131 132.226 93.7936 129.736 89.7052C129.287 88.9947 128.787 88.3372 128.204 87.4893ZM93.9372 139.612C93.9164 139.614 93.9026 139.615 93.8819 139.617C93.9901 141.089 93.9814 142.577 94.2338 144.025C94.6653 146.491 97.6021 149.185 100.04 149.537C103.785 150.08 107.775 147.525 108.685 143.83C109.026 142.429 108.964 140.925 109.094 139.47C109.161 138.686 109.426 138.028 110.272 137.818C111.058 137.626 111.978 138.232 112.203 139.113C112.328 139.588 112.399 140.081 112.414 140.571C112.649 146.321 109.75 150.48 104.294 152.274C99.169 153.952 93.3343 151.172 91.4503 146.063C90.2182 142.73 90.5826 139.272 91.033 135.849C91.1269 135.141 92.1177 134.436 92.6593 134.711C93.1499 134.956 93.7509 135.472 93.8273 135.944C94.0054 137.137 93.9165 138.386 93.9372 139.612ZM125.827 130.426C125.599 127.601 127.309 125.804 130.486 125.526C133.538 125.258 135.879 127.119 136.067 129.968C136.245 132.663 134.251 135.049 131.634 135.286C128.72 135.544 126.06 133.313 125.827 130.426ZM72.1173 118.427C71.8697 116.382 72.7812 114.505 74.3681 113.776C77.0787 112.544 80.9205 114.216 81.9152 117.061C82.6117 119.066 81.7322 121.475 79.917 122.5C76.8413 124.251 72.5544 122.008 72.1173 118.427Z" fill="#FFF7F9"/>
<path fill-rule="evenodd" clip-rule="evenodd" d="M154.361 68.7779C151.033 69.4599 148.491 68.3574 146.211 66.5619C143.902 64.7474 141.688 62.8067 139.411 60.9548C138.465 60.1831 137.511 59.4048 136.477 58.7658C135.559 58.1954 134.569 57.8689 133.402 57.7941C131.6 57.6752 129.795 57.2338 128.042 56.7324C126.011 56.1463 124.174 55.181 123.42 53.2512C119.229 52.4886 115.277 51.7855 111.324 51.0544C108.794 50.5895 106.25 50.4836 103.683 50.4636C91.4428 50.3754 80.3525 54.1103 70.2378 60.8111C61.6082 66.5315 55.0341 74.2115 50.4186 83.5705C49.9588 84.5028 49.8225 85.39 50.1197 86.4064C50.5728 87.9376 50.869 89.5084 51.3153 91.04C52.0013 93.3748 53.1481 94.2229 55.5204 94.2504C57.5168 94.2707 59.4707 93.9011 61.1039 92.7625C62.9949 91.4434 64.8787 90.0265 66.4734 88.3645C68.766 85.9841 70.8561 83.4013 72.3884 80.4177C72.662 79.8852 73.0494 79.3863 73.4774 78.9686C73.9375 78.5135 75.1507 78.7532 75.4234 79.3435C75.6793 79.8928 75.8756 80.4817 75.9819 81.0773C76.2943 82.7732 76.4561 84.5013 76.8568 86.1697C77.6067 89.2786 79.5257 90.4202 82.5813 89.6252C87.5741 88.3285 91.1594 85.0943 93.9948 80.9265C94.7475 79.8181 95.3016 78.5631 95.9662 77.3911C96.2066 76.9733 96.4672 76.547 96.7972 76.2138C97.3788 75.6163 98.7024 75.9391 98.9225 76.7578C99.1131 77.4593 99.1334 78.2086 99.2559 78.9293C99.5337 80.6278 99.7157 82.3474 100.13 84.0077C101.486 89.4012 104.858 93.1084 109.862 95.2632C113.149 96.6822 116.309 96.2583 119.119 93.9237C122.008 91.5201 123.933 88.4021 125.536 85.0485C125.903 84.2775 126.19 83.4493 126.637 82.7284C127.152 81.8833 128.572 81.82 129.193 82.602C129.722 83.2714 130.126 84.0413 130.563 84.7808C133.526 89.7322 136.437 94.7226 139.468 99.6341C140.36 101.083 141.461 102.447 142.655 103.657C144.188 105.22 145.827 105.204 147.579 103.888C149.002 102.821 149.786 101.289 150.556 99.7445C151.046 98.7609 151.463 97.7195 152.056 96.7984C152.724 95.7665 154.242 95.9977 154.702 97.1494C154.925 97.7153 155.046 98.3307 155.208 98.9222C157.012 105.686 160.471 111.604 164.373 117.307C164.715 117.808 165.145 118.26 165.567 118.706C167.855 121.09 170.788 121.272 173.389 119.206C174.256 118.517 174.378 117.533 174.417 116.547C174.581 112.353 174.558 108.166 173.802 104.026C172.259 95.5238 168.773 87.8115 163.852 80.8161C160.978 76.707 157.654 72.919 154.361 68.7779Z" fill="#F5C2E1"/>
<path fill-rule="evenodd" clip-rule="evenodd" d="M111.942 177.359C103.72 177.668 95.8163 177.468 87.9767 175.594C86.0519 178.628 84.9145 181.877 83.5094 184.984C76.2634 201.015 69.975 217.402 65.5565 234.451C66.7544 236.846 68.9901 237.663 71.1702 238.385C77.4688 240.479 83.9087 241.657 90.6064 241.237C96.9372 240.837 103.326 240.848 109.494 239.183C115.261 237.632 120.969 235.848 126.658 234.008C128.254 233.49 129.724 232.504 131.182 231.624C132.293 230.952 132.449 230.238 131.924 229.141C131.66 228.585 131.331 228.069 131.02 227.538C126.5 219.748 123.094 211.44 120.067 202.978C117.416 195.568 114.894 188.107 113.023 180.443C112.781 179.507 112.381 178.611 111.942 177.359Z" fill="#FF92CD"/>
<path fill-rule="evenodd" clip-rule="evenodd" d="M142.588 246.27C141.389 243.679 137.126 237.126 134.406 233.686C133.949 233.902 133.407 234.097 132.928 234.392C130.224 236.094 127.319 237.32 124.291 238.31C116.866 240.748 109.41 243.048 101.594 243.762C95.4072 244.326 89.1921 244.787 82.9887 244.272C77.1281 243.788 71.4791 242.305 66.1698 239.675C65.6505 239.419 65.0771 239.279 64.3781 239.036C62.8549 243.373 62.5529 247.585 63.1619 251.897C63.3513 253.244 64.0825 254.207 65.2657 254.702C66.6068 255.262 68 255.776 69.4193 256.078C75.2816 257.341 81.2121 257.925 87.2054 257.663C91.8338 257.46 96.455 257.159 101.078 256.886C110.38 256.336 119.393 254.229 128.273 251.535C132.462 250.263 136.566 248.703 140.699 247.238C141.364 247.021 141.966 246.604 142.588 246.27Z" fill="#FFDBEE"/>
<path fill-rule="evenodd" clip-rule="evenodd" d="M128.951 41.9857C131.321 42.6379 133.761 43.3058 136.393 44.0227C142.64 39.3632 148.393 34.1298 152.188 27.0419C154.933 21.9195 155.291 16.49 153.564 10.9557C153.201 9.81075 152.579 8.71324 151.906 7.70357C151.203 6.64013 149.966 6.55646 149.084 7.50605C148.176 8.48561 147.302 9.55384 146.665 10.7168C145.665 12.5381 144.877 14.4841 144.008 16.373C143.648 17.1505 143.413 18.0169 142.913 18.6855C142.609 19.087 141.856 19.4306 141.384 19.3463C140.912 19.2621 140.375 18.6774 140.165 18.1808C139.887 17.5208 139.94 16.7309 139.79 16.0123C139.234 13.3662 138.699 10.7185 138.075 8.0914C137.732 6.6503 137.106 5.31448 135.831 4.04782C135.463 4.52421 134.99 4.89612 134.844 5.37005C134.386 6.89858 134.056 8.45974 133.676 10.0036C133.532 10.5897 133.482 11.2389 133.2 11.751C132.992 12.1313 132.455 12.5921 132.099 12.5694C131.569 12.5386 130.79 12.2456 130.585 11.8257C129.989 10.628 129.669 9.2975 129.167 8.04368C128.912 7.41006 128.495 6.85155 128.05 6.0847C126.893 8.12122 126.887 10.1214 126.673 12.0388C126.455 13.9916 126.379 15.976 126.44 17.9362C126.695 25.9514 127.302 33.9195 128.951 41.9857Z" fill="#F5C2E1"/>
<path fill-rule="evenodd" clip-rule="evenodd" d="M188.753 184.781C188.238 182.981 187.017 182.342 185.906 181.603C185.299 181.199 184.617 180.899 184.049 180.45C183.229 179.795 183.385 178.415 184.34 177.979C185.107 177.635 185.956 177.46 186.756 177.183C187.671 176.869 188.601 176.569 189.483 176.173C190.209 175.846 190.609 175.234 190.394 174.387C190.198 173.608 189.705 173.049 188.918 172.939C188.328 172.856 187.713 173 187.116 173.002C186.351 173.003 185.662 172.808 185.339 172.004C185.041 171.261 185.381 170.499 186.285 169.843C186.583 169.631 186.934 169.493 187.231 169.282C189.848 167.439 190.226 166.246 189.327 162.516C187.848 162.17 186.528 162.928 185.247 163.472C183.232 164.33 181.318 165.433 179.336 166.366C178.402 166.807 177.784 167.478 177.257 168.345C176.854 169.006 176.199 169.364 175.383 169.136C174.581 168.908 174.177 168.243 174.102 167.505C174.03 166.809 174.269 166.083 174.279 165.366C174.289 164.278 174.332 163.166 174.149 162.092C173.978 161.087 173.258 160.369 172.347 159.896C171.249 159.325 170.101 159.691 169.63 160.848C169.353 161.522 169.107 162.242 169.028 162.963C168.75 165.524 168.536 168.094 168.342 170.662C168.28 171.516 168.463 172.4 168.323 173.239C167.55 177.934 168.722 182.254 170.785 186.388C172.897 190.638 176.308 192.497 181.254 192.172C182.144 190.752 181.443 189.351 181.091 187.967C180.914 187.264 180.505 186.614 180.335 185.911C180.078 184.87 181.098 183.897 182.088 184.223C182.772 184.453 183.4 184.869 184.08 185.128C185.604 185.716 187.113 185.738 188.753 184.781Z" fill="#FFF7F9"/>
<path fill-rule="evenodd" clip-rule="evenodd" d="M165.422 146.433C166.668 146.733 167.373 147.067 168.074 147.043C173.433 146.856 178.565 145.745 182.523 141.817C186.793 137.584 188.658 132.415 187.197 126.349C186.458 123.295 184.342 121.551 181.373 120.887C179.013 120.36 177.3 121.357 176.515 123.633C175.994 125.145 175.593 126.691 175.072 128.203C173.201 133.576 170.549 138.544 167.421 143.267C166.827 144.167 166.269 145.086 165.422 146.433Z" fill="#FFF7F9"/>
<path fill-rule="evenodd" clip-rule="evenodd" d="M26.7771 139.347C25.5143 139.567 25.2436 140.422 25.2232 141.28C25.1922 142.748 25.2935 144.222 25.4151 145.686C25.5877 147.75 25.3684 148.644 24.4369 148.832C23.0463 149.111 22.5894 148.001 21.9596 147.093C21.3378 146.199 20.675 145.315 19.8901 144.566C19.382 144.085 18.5601 143.683 17.9231 144.284C17.5462 144.642 17.246 145.38 17.3244 145.879C17.5164 147.072 17.9285 148.234 18.312 149.385C18.5003 149.96 19.0035 150.47 19.0519 151.035C19.0973 151.558 18.8821 152.317 18.5001 152.605C18.132 152.892 17.2673 152.949 16.8804 152.698C15.7641 151.98 14.8174 150.921 13.3287 151.095C12.7703 151.157 12.238 151.386 11.7948 151.503C11.5406 152.49 12.0633 152.887 12.5394 153.216C13.0303 153.559 13.6343 153.738 14.1572 154.043C15.6755 154.934 15.7389 156.27 14.3026 157.155C13.6843 157.538 12.9801 157.793 12.3921 158.209C11.9164 158.546 11.5488 159.029 10.9277 159.658C11.5236 160.105 11.919 160.567 12.4193 160.754C14.9715 161.715 17.6322 161.883 20.3309 161.718C21.7773 161.631 23.2227 161.531 24.672 161.578C27.6332 161.674 30.2228 160.97 32.074 158.447C33.8808 155.983 35.7466 153.564 37.4876 151.056C38.2546 149.954 38.778 148.659 38.6117 147.247C38.5586 146.809 38.2753 146.17 37.947 146.054C37.4546 145.88 36.6045 145.852 36.3071 146.155C35.2989 147.191 34.4339 148.378 33.5752 149.557C32.938 150.439 32.4988 151.651 31.1064 151.242C29.9625 150.906 29.9703 149.783 29.857 148.809C29.5547 146.116 29.136 143.445 27.9468 140.979C27.6379 140.371 27.1406 139.846 26.7771 139.347Z" fill="#FFF7F9"/>
<path fill-rule="evenodd" clip-rule="evenodd" d="M41.3087 120.404C41.2206 118.544 41.1935 117.325 41.1048 116.118C40.5843 109.322 40.9866 102.598 42.5 95.9534C42.578 95.5967 42.6624 95.2326 42.7756 94.8804C43.6243 92.2423 42.1655 90.3648 40.1909 88.9395C38.5612 87.7624 35.6509 87.6977 33.7502 89.4525C31.3938 91.6272 29.937 94.2192 29.8788 97.4933C29.734 104.977 32.4938 111.41 36.9717 117.196C37.563 117.959 38.3653 118.566 39.1262 119.177C39.5633 119.544 40.1279 119.755 41.3087 120.404Z" fill="#FFF7F9"/>
<path fill-rule="evenodd" clip-rule="evenodd" d="M22.4793 259.197C21.7608 261.054 21.9454 262.808 22.616 264.365C25.0941 270.181 28.8982 274.838 34.6334 277.683C34.8426 277.786 35.1053 277.767 35.4645 277.831C36.3255 276.778 36.6818 275.573 36.1984 274.198C34.4901 269.399 32.1556 264.97 28.2587 261.603C27.0859 260.588 25.6106 259.905 24.204 259.209C23.749 258.977 23.0695 259.188 22.4793 259.197Z" fill="#FF92CD"/>
<path fill-rule="evenodd" clip-rule="evenodd" d="M129.289 297.4C128.703 298.791 128.021 300.21 127.491 301.688C126.546 304.34 125.679 307.022 124.799 309.697C124.333 311.121 124.176 312.571 124.563 314.051C124.833 315.083 125.803 315.608 126.815 315.287C128.031 314.902 128.931 314.092 129.671 313.104C132.191 309.745 133.282 305.959 133.111 301.741C133.007 299.293 131.981 297.811 129.289 297.4Z" fill="#FF92CD"/>
<path fill-rule="evenodd" clip-rule="evenodd" d="M124.281 49.5669C125.774 47.8493 126.008 46.218 125.842 44.4201C125.602 41.8206 124.92 39.3522 124.106 36.8935C122.66 32.5382 120.631 28.4787 117.875 24.838C116.781 23.3895 115.453 22.0567 114.01 20.9638C112.222 19.616 110.617 20.093 109.39 22.0294C107.963 24.2754 107.463 26.8385 107.375 29.4202C107.204 34.4709 107.582 39.509 108.297 44.515C108.501 45.9594 109.034 47.0636 110.594 47.4811C115.075 48.6782 119.57 49.6919 124.281 49.5669Z" fill="#FFD152"/>
<path fill-rule="evenodd" clip-rule="evenodd" d="M137.803 55.4617C141.009 58.1288 144.174 60.8059 147.39 63.4231C148.24 64.1108 149.181 64.7216 150.162 65.2031C151.973 66.1002 153.422 65.6769 154.629 64.0297C154.92 63.6362 155.137 63.192 155.37 62.7608C158.094 57.6539 160.33 52.3307 162.058 46.8066C162.598 45.0685 163.203 43.2834 162.307 41.4974C161.084 40.7392 159.853 41.1112 158.667 41.2413C155.205 41.6105 143.561 44.8111 140.086 46.3389C139.762 47.6962 139.403 49.2384 139.015 50.7758C138.641 52.2982 138.232 53.8301 137.803 55.4617Z" fill="#FFD152"/>
<path fill-rule="evenodd" clip-rule="evenodd" d="M127.091 52.628C128.961 53.8645 130.611 54.2754 132.313 54.4578C133.889 54.6215 134.672 54.2056 135.165 52.7727C135.6 51.5124 135.822 50.1768 136.127 48.9403C134.623 46.8276 132.601 46.1707 130.293 45.7877C128.623 47.7569 128.449 50.3099 127.091 52.628Z" fill="#FFD152"/>
<path fill-rule="evenodd" clip-rule="evenodd" d="M143.43 131.8C149.969 131.764 154.956 137.681 154.377 144.081C154.116 146.95 152.747 149.318 150.76 150.946C149.083 152.628 146.803 153.758 144.55 154.115C139.334 154.937 134.565 149.726 133.503 145.02C132.069 138.657 136.704 131.836 143.43 131.8Z" fill="#F8CFDD"/>
<path fill-rule="evenodd" clip-rule="evenodd" d="M49.3915 125.684C49.4236 124.608 49.6362 123.624 49.9864 122.714C50.8852 117.827 55.2184 114.46 60.2189 114.685C65.7775 114.939 71.3981 118.494 71.5114 124.667C71.6414 131.351 65.2515 136.148 58.9766 135.512C54.3697 135.061 49.2506 130.669 49.3915 125.684Z" fill="#F8CFDD"/>
</svg>
